<svg xmlns="http://www.w3.org/2000/svg" xmlns:xlink="http://www.w3.org/1999/xlink" viewBox="0 0 32 32"><defs><path id="a" d="M.349.587h30.857v22.746H.349z"/><path id="c" d="M0 .191h32v30.476H0z"/></defs><g fill="none" fill-rule="evenodd"><g transform="translate(0 7.81)"><mask id="b" fill="#fff"><use xlink:href="#a"/></mask><path fill="#00985F" d="M25.67 2.06a.75.75 0 110-1.07 1.35 1.35 0 10.01.01c.29.3.29.77 0 1.06zM31.04.59h-2.71l-.66.82c-.11.12-.07.23.04.27l.89.39L31.1.91a.17.17 0 00-.06-.32zM19.29 17.22l2.2 6.11h1.63l-2.33-6.46c-.5.15-1 .27-1.5.35zm2.17-8.31c.18-.28.36-.58.52-.87-.07-.04-.14-.09-.22 0a11.8 11.8 0 01-9.3 4.03H8.55c-.12 0-.21-.1-.13-.22a57.98 57.98 0 018.84-9.55l-6.54 5.5a2.9 2.9 0 01-1.98.74H.51c-.23 0-.16.17-.12.28a4.78 4.78 0 004.83 3.35L3.3 14.18c-.08.08-.08.32.11.32h7.35c4.31.2 8.4-1.93 10.7-5.6zM21 13.84h-3.32c-.75.42-1.52.78-2.32 1.09-.08.03-.12.05-.08.16l2.97 8.24h1.63l-2.73-7.5h.08c1.77 0 6-.45 8.3-4.15A5.42 5.42 0 0121 13.84z" mask="url(#b)"/></g><g transform="translate(0 .476)"><mask id="d" fill="#fff"><use xlink:href="#c"/></mask><path fill="#E0001A" d="M9.67 13.84l4.24-3.52c.7-1.89 1.42-3.76 2.17-5.37.38.86.74 1.73 1.11 2.64a39.97 39.97 0 012.76-2.11l.03-.01a7.7 7.7 0 012.17-1.02c-.96-2.1-1.64-3.6-1.97-4.26h-8.23c-.69 1.55-3.24 6.85-6.23 13.91h3.02c.33.04.67-.06.93-.26zM0 30.67h7.35l2.37-7.3H2.55C1.75 25.6.88 28.03 0 30.68zm26.88-10.84a9.76 9.76 0 01-4.63 3.88l2.5 6.96H32c-1.45-4.2-3-8.32-4.47-12.06-.2.4-.42.85-.65 1.22zm-3.11-9.6a1.35 1.35 0 111.9 0c-.53.53-1.37.53-1.9 0zm1.74 8.79c1.57-3 2.62-6.25 3.09-9.6l-.89-.4c-.11-.03-.15-.15-.04-.27l.66-.81a4.72 4.72 0 00-4.05-2.12 6.06 6.06 0 00-3.42 1A56.96 56.96 0 008.42 19.19c-.08.1.01.22.12.22h3.92c3.55.11 6.97-1.37 9.3-4.06a.16.16 0 01.23-.02c.07.05.1.16.05.24a12.2 12.2 0 01-4.37 5.6H21a5.42 5.42 0 004.5-2.15z" mask="url(#d)"/></g></g></svg>